<?xml version="1.0" standalone="no"?>
<!DOCTYPE svg PUBLIC "-//W3C//DTD SVG 20010904//EN"
 "http://www.w3.org/TR/2001/REC-SVG-20010904/DTD/svg10.dtd">
<svg version="1.0" xmlns="http://www.w3.org/2000/svg"
 width="16.000000pt" height="16.000000pt" viewBox="0 0 16.000000 16.000000"
 preserveAspectRatio="xMidYMid meet">

    <g transform="translate(0.000000,16.000000) scale(0.100000,-0.100000)"
    fill="#000000" stroke="none">
        <path d="M25 135 c-50 -49 -15 -135 55 -135 41 0 80 39 80 80 0 41 -39 80 -80
        80 -19 0 -40 -9 -55 -25z m69 -56 c18 -15 19 -20 7 -31 -9 -8 -12 -9 -7 -1 4
        7 -2 18 -14 25 -11 7 -20 22 -19 33 0 14 2 16 6 5 4 -8 16 -22 27 -31z"/>
        <animate
            attributeName="fill"
            values="#000000; #ffffff; #000000;"
            dur="5s"
            repeatCount="indefinite"
        />
    </g>
</svg>
